# xmcd
#
# Track frame offsets:
#	150
#	50851
#	93071
#	129911
#
# Disc length: 2285 seconds
# Revision: 1
# Processed by: cddbd v1.5.2PL0 Copyright (c) Steve Scherf et al.
# Submitted via: dBpowerAMP V12.0
#
DISCID=2b08eb04
DTITLE=Lester Levenson - The Way CD 02
DYEAR=1989
DGENRE=Home Study
TTITLE0=Session June 18th 1989 pt 1
TTITLE1=Session June 18th 1989 pt 2
TTITLE2=Session June 25th 1989 pt 1
TTITLE3=Session June 25th 1989 pt 2
EXTD=
EXTT0=
EXTT1=
EXTT2=
EXTT3=
PLAYORDER=
